# xmcd
#
# Track frame offsets:
#	150
#	10599
#	29881
#	49414
#	67680
#	87652
#	102982
#	122777
#	139498
#	157580
#	177438
#	195831
#	214759
#
# Disc length: 3159 seconds
#
# Revision: 0
# Processed by: cddbd v1.4PL0 Copyright (c) Steve Scherf et al.
# Submitted via: EasyCDDAExtractor 4.5.0.2
#
DISCID=b10c550d
DTITLE=Kim hyung suk - AC+E III
DYEAR=2002
DGENRE=Ballad
TTITLE0=Dear you
TTITLE1=괜찮아요 난
TTITLE2=마지막 바램
TTITLE3=사랑속으로
TTITLE4=니가 사랑할 즈음
TTITLE5=당신의 낮보다 아름다운 우리의 밤
TTITLE6=푸른꿈속에서
TTITLE7=Baby cat
TTITLE8=Love again 
TTITLE9=눈부신이별
TTITLE10=몰랐어
TTITLE11=마지막 바램
TTITLE12=Forver with you
EXTD=
EXTT0=
EXTT1=
EXTT2=
EXTT3=
EXTT4=
EXTT5=
EXTT6=
EXTT7=
EXTT8=
EXTT9=
EXTT10=
EXTT11=
EXTT12=
PLAYORDER=
